<svg width="2666" height="990" viewBox="0 0 2666 990" fill="none" xmlns="http://www.w3.org/2000/svg">
<mask id="path-1-inside-1_2504_957" fill="white">
<path d="M405.311 639.773C405.311 778.303 331.002 847.54 182.44 847.54C111.525 847.54 52.7827 834.069 6.07739 807.153C4.89758 806.473 4.24812 805.153 4.41145 803.802L19.0761 682.485C19.3763 680.002 22.1546 678.665 24.31 679.936C68.2217 705.836 119.918 718.734 179.347 718.734C236.718 718.734 265.374 696.925 265.374 653.251C265.374 634.598 256.238 619.216 237.909 607.017C219.58 594.99 197.506 584.555 171.544 575.882C145.668 567.267 119.706 556.86 93.7734 544.747C67.8971 532.606 45.766 513.214 27.4369 486.571C9.13619 459.9 0 426.49 0 386.313C0 328.876 18.8399 282.643 56.4911 247.584C94.1707 212.638 148.931 195.152 220.772 195.152C276.573 195.152 329.375 205.576 379.15 226.343C380.522 226.915 381.36 228.313 381.228 229.792L370.462 350.427C370.255 352.744 367.846 354.186 365.693 353.303C321.287 335.095 272.971 326.005 220.772 326.005C169.643 326.005 144.079 344.032 144.079 380.029C144.079 397.345 153.102 411.705 171.034 423.107C188.994 434.594 210.784 444.404 236.349 452.735C261.885 461.094 287.449 471.302 313.07 483.358C338.634 495.499 360.396 514.749 378.356 541.022C396.317 567.466 405.311 600.307 405.311 639.773Z"/>
<path d="M761.388 207.409C761.67 205.765 763.097 204.563 764.766 204.563H918.649C920.303 204.563 921.721 205.744 922.019 207.37L997.232 616.969L1010.44 698.556C1010.58 699.419 1011.32 700.053 1012.2 700.053C1013.1 700.053 1013.86 699.384 1013.97 698.491L1024.1 616.969L1086.96 207.469C1087.21 205.797 1088.65 204.563 1090.34 204.563H1231.4C1233.57 204.563 1235.19 206.549 1234.76 208.671L1107.62 832.345C1107.3 833.94 1105.89 835.086 1104.27 835.086H924.375C922.701 835.086 921.273 833.878 920.995 832.229L857.211 452.82L846.045 370.282C845.923 369.383 845.156 368.713 844.248 368.713C843.349 368.713 842.586 369.371 842.455 370.26L830.256 452.82L765.427 832.238C765.146 833.883 763.72 835.086 762.05 835.086H582.2C580.588 835.086 579.193 833.962 578.852 832.388L443.522 208.713C443.059 206.579 444.686 204.563 446.871 204.563H591.08C592.759 204.563 594.191 205.78 594.462 207.436L661.35 616.969L673.547 698.508C673.68 699.396 674.443 700.053 675.341 700.053C676.224 700.053 676.98 699.417 677.129 698.547L761.388 207.409Z"/>
<path d="M1484.37 831.661C1484.37 833.553 1482.84 835.086 1480.94 835.086H1333.33C1331.44 835.086 1329.91 833.553 1329.91 831.661V211.953C1329.91 210.124 1331.35 208.619 1333.17 208.532L1480.78 201.576C1482.74 201.484 1484.37 203.042 1484.37 204.997V831.661ZM1492.68 70.5827C1492.68 115.594 1464.31 138.056 1407.68 138.056C1377.92 138.056 1356.15 132.91 1342.34 122.503C1328.49 112.125 1321.59 94.7799 1321.59 70.5827C1321.59 24.8325 1350.22 2.00003 1407.68 2.00003C1464.31 1.97159 1492.68 24.8325 1492.68 70.5827Z"/>
<path d="M1960.1 515.147C1960.1 443.124 1952.16 394.502 1936.3 369.225C1920.41 343.918 1893.74 331.265 1856.49 331.265C1812.57 331.265 1780.91 347.978 1761.6 381.402C1761.31 381.915 1761.15 382.502 1761.15 383.094V661.789C1761.15 662.362 1761.3 662.931 1761.58 663.433C1780.87 698.179 1811.45 715.663 1853.36 715.663C1889.31 715.663 1916.07 701.759 1933.63 674.065C1951.37 646.455 1960.1 593.426 1960.1 515.147ZM2115.56 519.299C2115.56 628.058 2096.07 709.408 2057.03 763.404C2017.99 817.428 1963.23 844.441 1892.77 844.441C1838.09 844.441 1794.84 829.175 1763.23 798.727C1762.58 798.097 1761.63 797.873 1760.77 798.156C1759.75 798.49 1759.07 799.452 1759.1 800.523L1761.15 882.855V986.484C1761.15 988.375 1759.62 989.909 1757.72 989.909H1612.13C1610.24 989.909 1608.7 988.375 1608.7 986.484V211.883C1608.7 210.083 1610.1 208.591 1611.89 208.467L1712.28 201.561C1713.63 201.467 1714.91 202.18 1715.55 203.378L1740.37 250.377C1741.43 252.386 1744.12 252.823 1745.79 251.288C1787.33 213.228 1837.61 194.185 1896.92 194.185C1970.15 194.185 2024.88 218.582 2061.23 267.374C2097.43 316.224 2115.56 400.189 2115.56 519.299Z"/>
<path d="M2325.18 452.32C2325.05 454.285 2326.62 455.948 2328.59 455.948H2523.61C2525.52 455.948 2527.06 454.377 2527.02 452.466C2525.94 406.552 2517.22 373.737 2500.67 354.154C2483.73 334.109 2459.39 324.071 2427.58 324.071C2393.02 324.071 2367.97 333.881 2352.42 353.614C2337.32 372.879 2328.23 405.738 2325.18 452.32ZM2461.8 846.488C2361.64 846.488 2288.21 819.021 2241.57 763.916C2194.89 708.896 2171.6 624.561 2171.6 511.024C2171.6 299.789 2256.63 194.185 2426.5 194.185C2586.19 194.185 2666 291.088 2666 485.036C2666 514.005 2664.69 538.265 2662.27 557.84C2662.06 559.544 2660.6 560.812 2658.88 560.812H2331.73C2329.77 560.812 2328.21 562.46 2328.33 564.413C2331.44 617.948 2344.68 655.703 2367.97 677.704C2391.86 700.252 2429.34 711.484 2480.47 711.484C2530.86 711.484 2580.32 702.283 2628.78 683.985C2630.86 683.201 2633.14 684.547 2633.43 686.749L2649.11 805.562C2649.3 807.027 2648.53 808.451 2647.2 809.084C2594.46 834.047 2532.67 846.488 2461.8 846.488Z"/>
</mask>
<path d="M405.311 639.773C405.311 778.303 331.002 847.54 182.44 847.54C111.525 847.54 52.7827 834.069 6.07739 807.153C4.89758 806.473 4.24812 805.153 4.41145 803.802L19.0761 682.485C19.3763 680.002 22.1546 678.665 24.31 679.936C68.2217 705.836 119.918 718.734 179.347 718.734C236.718 718.734 265.374 696.925 265.374 653.251C265.374 634.598 256.238 619.216 237.909 607.017C219.58 594.99 197.506 584.555 171.544 575.882C145.668 567.267 119.706 556.86 93.7734 544.747C67.8971 532.606 45.766 513.214 27.4369 486.571C9.13619 459.9 0 426.49 0 386.313C0 328.876 18.8399 282.643 56.4911 247.584C94.1707 212.638 148.931 195.152 220.772 195.152C276.573 195.152 329.375 205.576 379.15 226.343C380.522 226.915 381.36 228.313 381.228 229.792L370.462 350.427C370.255 352.744 367.846 354.186 365.693 353.303C321.287 335.095 272.971 326.005 220.772 326.005C169.643 326.005 144.079 344.032 144.079 380.029C144.079 397.345 153.102 411.705 171.034 423.107C188.994 434.594 210.784 444.404 236.349 452.735C261.885 461.094 287.449 471.302 313.07 483.358C338.634 495.499 360.396 514.749 378.356 541.022C396.317 567.466 405.311 600.307 405.311 639.773Z" fill="#1D1D1F"/>
<path d="M761.388 207.409C761.67 205.765 763.097 204.563 764.766 204.563H918.649C920.303 204.563 921.721 205.744 922.019 207.37L997.232 616.969L1010.44 698.556C1010.58 699.419 1011.32 700.053 1012.2 700.053C1013.1 700.053 1013.86 699.384 1013.97 698.491L1024.1 616.969L1086.96 207.469C1087.21 205.797 1088.65 204.563 1090.34 204.563H1231.4C1233.57 204.563 1235.19 206.549 1234.76 208.671L1107.62 832.345C1107.3 833.94 1105.89 835.086 1104.27 835.086H924.375C922.701 835.086 921.273 833.878 920.995 832.229L857.211 452.82L846.045 370.282C845.923 369.383 845.156 368.713 844.248 368.713C843.349 368.713 842.586 369.371 842.455 370.26L830.256 452.82L765.427 832.238C765.146 833.883 763.72 835.086 762.05 835.086H582.2C580.588 835.086 579.193 833.962 578.852 832.388L443.522 208.713C443.059 206.579 444.686 204.563 446.871 204.563H591.08C592.759 204.563 594.191 205.78 594.462 207.436L661.35 616.969L673.547 698.508C673.68 699.396 674.443 700.053 675.341 700.053C676.224 700.053 676.98 699.417 677.129 698.547L761.388 207.409Z" fill="#1D1D1F"/>
<path d="M1484.37 831.661C1484.37 833.553 1482.84 835.086 1480.94 835.086H1333.33C1331.44 835.086 1329.91 833.553 1329.91 831.661V211.953C1329.91 210.124 1331.35 208.619 1333.17 208.532L1480.78 201.576C1482.74 201.484 1484.37 203.042 1484.37 204.997V831.661ZM1492.68 70.5827C1492.68 115.594 1464.31 138.056 1407.68 138.056C1377.92 138.056 1356.15 132.91 1342.34 122.503C1328.49 112.125 1321.59 94.7799 1321.59 70.5827C1321.59 24.8325 1350.22 2.00003 1407.68 2.00003C1464.31 1.97159 1492.68 24.8325 1492.68 70.5827Z" fill="#1D1D1F"/>
<path d="M1960.1 515.147C1960.1 443.124 1952.16 394.502 1936.3 369.225C1920.41 343.918 1893.74 331.265 1856.49 331.265C1812.57 331.265 1780.91 347.978 1761.6 381.402C1761.31 381.915 1761.15 382.502 1761.15 383.094V661.789C1761.15 662.362 1761.3 662.931 1761.58 663.433C1780.87 698.179 1811.45 715.663 1853.36 715.663C1889.31 715.663 1916.07 701.759 1933.63 674.065C1951.37 646.455 1960.1 593.426 1960.1 515.147ZM2115.56 519.299C2115.56 628.058 2096.07 709.408 2057.03 763.404C2017.99 817.428 1963.23 844.441 1892.77 844.441C1838.09 844.441 1794.84 829.175 1763.23 798.727C1762.58 798.097 1761.63 797.873 1760.77 798.156C1759.75 798.49 1759.07 799.452 1759.1 800.523L1761.15 882.855V986.484C1761.15 988.375 1759.62 989.909 1757.72 989.909H1612.13C1610.24 989.909 1608.7 988.375 1608.7 986.484V211.883C1608.7 210.083 1610.1 208.591 1611.89 208.467L1712.28 201.561C1713.63 201.467 1714.91 202.18 1715.55 203.378L1740.37 250.377C1741.43 252.386 1744.12 252.823 1745.79 251.288C1787.33 213.228 1837.61 194.185 1896.92 194.185C1970.15 194.185 2024.88 218.582 2061.23 267.374C2097.43 316.224 2115.56 400.189 2115.56 519.299Z" fill="#1D1D1F"/>
<path d="M2325.18 452.32C2325.05 454.285 2326.62 455.948 2328.59 455.948H2523.61C2525.52 455.948 2527.06 454.377 2527.02 452.466C2525.94 406.552 2517.22 373.737 2500.67 354.154C2483.73 334.109 2459.39 324.071 2427.58 324.071C2393.02 324.071 2367.97 333.881 2352.42 353.614C2337.32 372.879 2328.23 405.738 2325.18 452.32ZM2461.8 846.488C2361.64 846.488 2288.21 819.021 2241.57 763.916C2194.89 708.896 2171.6 624.561 2171.6 511.024C2171.6 299.789 2256.63 194.185 2426.5 194.185C2586.19 194.185 2666 291.088 2666 485.036C2666 514.005 2664.69 538.265 2662.27 557.84C2662.06 559.544 2660.6 560.812 2658.88 560.812H2331.73C2329.77 560.812 2328.21 562.46 2328.33 564.413C2331.44 617.948 2344.68 655.703 2367.97 677.704C2391.86 700.252 2429.34 711.484 2480.47 711.484C2530.86 711.484 2580.32 702.283 2628.78 683.985C2630.86 683.201 2633.14 684.547 2633.43 686.749L2649.11 805.562C2649.3 807.027 2648.53 808.451 2647.2 809.084C2594.46 834.047 2532.67 846.488 2461.8 846.488Z" fill="#1D1D1F"/>
<path d="M405.311 639.773C405.311 778.303 331.002 847.54 182.44 847.54C111.525 847.54 52.7827 834.069 6.07739 807.153C4.89758 806.473 4.24812 805.153 4.41145 803.802L19.0761 682.485C19.3763 680.002 22.1546 678.665 24.31 679.936C68.2217 705.836 119.918 718.734 179.347 718.734C236.718 718.734 265.374 696.925 265.374 653.251C265.374 634.598 256.238 619.216 237.909 607.017C219.58 594.99 197.506 584.555 171.544 575.882C145.668 567.267 119.706 556.86 93.7734 544.747C67.8971 532.606 45.766 513.214 27.4369 486.571C9.13619 459.9 0 426.49 0 386.313C0 328.876 18.8399 282.643 56.4911 247.584C94.1707 212.638 148.931 195.152 220.772 195.152C276.573 195.152 329.375 205.576 379.15 226.343C380.522 226.915 381.36 228.313 381.228 229.792L370.462 350.427C370.255 352.744 367.846 354.186 365.693 353.303C321.287 335.095 272.971 326.005 220.772 326.005C169.643 326.005 144.079 344.032 144.079 380.029C144.079 397.345 153.102 411.705 171.034 423.107C188.994 434.594 210.784 444.404 236.349 452.735C261.885 461.094 287.449 471.302 313.07 483.358C338.634 495.499 360.396 514.749 378.356 541.022C396.317 567.466 405.311 600.307 405.311 639.773Z" stroke="#1D1D1F" stroke-width="14.4" mask="url(#path-1-inside-1_2504_957)"/>
<path d="M761.388 207.409C761.67 205.765 763.097 204.563 764.766 204.563H918.649C920.303 204.563 921.721 205.744 922.019 207.37L997.232 616.969L1010.44 698.556C1010.58 699.419 1011.32 700.053 1012.2 700.053C1013.1 700.053 1013.86 699.384 1013.97 698.491L1024.1 616.969L1086.96 207.469C1087.21 205.797 1088.65 204.563 1090.34 204.563H1231.4C1233.57 204.563 1235.19 206.549 1234.76 208.671L1107.62 832.345C1107.3 833.94 1105.89 835.086 1104.27 835.086H924.375C922.701 835.086 921.273 833.878 920.995 832.229L857.211 452.82L846.045 370.282C845.923 369.383 845.156 368.713 844.248 368.713C843.349 368.713 842.586 369.371 842.455 370.26L830.256 452.82L765.427 832.238C765.146 833.883 763.72 835.086 762.05 835.086H582.2C580.588 835.086 579.193 833.962 578.852 832.388L443.522 208.713C443.059 206.579 444.686 204.563 446.871 204.563H591.08C592.759 204.563 594.191 205.78 594.462 207.436L661.35 616.969L673.547 698.508C673.68 699.396 674.443 700.053 675.341 700.053C676.224 700.053 676.98 699.417 677.129 698.547L761.388 207.409Z" stroke="#1D1D1F" stroke-width="14.4" mask="url(#path-1-inside-1_2504_957)"/>
<path d="M1484.37 831.661C1484.37 833.553 1482.84 835.086 1480.94 835.086H1333.33C1331.44 835.086 1329.91 833.553 1329.91 831.661V211.953C1329.91 210.124 1331.35 208.619 1333.17 208.532L1480.78 201.576C1482.74 201.484 1484.37 203.042 1484.37 204.997V831.661ZM1492.68 70.5827C1492.68 115.594 1464.31 138.056 1407.68 138.056C1377.92 138.056 1356.15 132.91 1342.34 122.503C1328.49 112.125 1321.59 94.7799 1321.59 70.5827C1321.59 24.8325 1350.22 2.00003 1407.68 2.00003C1464.31 1.97159 1492.68 24.8325 1492.68 70.5827Z" stroke="#1D1D1F" stroke-width="14.4" mask="url(#path-1-inside-1_2504_957)"/>
<path d="M1960.1 515.147C1960.1 443.124 1952.16 394.502 1936.3 369.225C1920.41 343.918 1893.74 331.265 1856.49 331.265C1812.57 331.265 1780.91 347.978 1761.6 381.402C1761.31 381.915 1761.15 382.502 1761.15 383.094V661.789C1761.15 662.362 1761.3 662.931 1761.58 663.433C1780.87 698.179 1811.45 715.663 1853.36 715.663C1889.31 715.663 1916.07 701.759 1933.63 674.065C1951.37 646.455 1960.1 593.426 1960.1 515.147ZM2115.56 519.299C2115.56 628.058 2096.07 709.408 2057.03 763.404C2017.99 817.428 1963.23 844.441 1892.77 844.441C1838.09 844.441 1794.84 829.175 1763.23 798.727C1762.58 798.097 1761.63 797.873 1760.77 798.156C1759.75 798.49 1759.07 799.452 1759.1 800.523L1761.15 882.855V986.484C1761.15 988.375 1759.62 989.909 1757.72 989.909H1612.13C1610.24 989.909 1608.7 988.375 1608.7 986.484V211.883C1608.7 210.083 1610.1 208.591 1611.89 208.467L1712.28 201.561C1713.63 201.467 1714.91 202.18 1715.55 203.378L1740.37 250.377C1741.43 252.386 1744.12 252.823 1745.79 251.288C1787.33 213.228 1837.61 194.185 1896.92 194.185C1970.15 194.185 2024.88 218.582 2061.23 267.374C2097.43 316.224 2115.56 400.189 2115.56 519.299Z" stroke="#1D1D1F" stroke-width="14.4" mask="url(#path-1-inside-1_2504_957)"/>
<path d="M2325.18 452.32C2325.05 454.285 2326.62 455.948 2328.59 455.948H2523.61C2525.52 455.948 2527.06 454.377 2527.02 452.466C2525.94 406.552 2517.22 373.737 2500.67 354.154C2483.73 334.109 2459.39 324.071 2427.58 324.071C2393.02 324.071 2367.97 333.881 2352.42 353.614C2337.32 372.879 2328.23 405.738 2325.18 452.32ZM2461.8 846.488C2361.64 846.488 2288.21 819.021 2241.57 763.916C2194.89 708.896 2171.6 624.561 2171.6 511.024C2171.6 299.789 2256.63 194.185 2426.5 194.185C2586.19 194.185 2666 291.088 2666 485.036C2666 514.005 2664.69 538.265 2662.27 557.84C2662.06 559.544 2660.6 560.812 2658.88 560.812H2331.73C2329.77 560.812 2328.21 562.46 2328.33 564.413C2331.44 617.948 2344.68 655.703 2367.97 677.704C2391.86 700.252 2429.34 711.484 2480.47 711.484C2530.86 711.484 2580.32 702.283 2628.78 683.985C2630.86 683.201 2633.14 684.547 2633.43 686.749L2649.11 805.562C2649.3 807.027 2648.53 808.451 2647.2 809.084C2594.46 834.047 2532.67 846.488 2461.8 846.488Z" stroke="#1D1D1F" stroke-width="14.4" mask="url(#path-1-inside-1_2504_957)"/>
<g filter="url(#filter0_d_2504_957)">
<rect x="33.8333" y="2" width="405.99" height="128.563" fill="#FF9831"/>
<rect x="439.821" y="2" width="405.99" height="128.563" fill="white"/>
<rect x="845.81" y="2" width="405.99" height="128.563" fill="#0B7004"/>
</g>
<defs>
<filter id="filter0_d_2504_957" x="29.8333" y="0" width="1225.97" height="136.562" filterUnits="userSpaceOnUse" color-interpolation-filters="sRGB">
<feFlood flood-opacity="0" result="BackgroundImageFix"/>
<feColorMatrix in="SourceAlpha" type="matrix" values="0 0 0 0 0 0 0 0 0 0 0 0 0 0 0 0 0 0 127 0" result="hardAlpha"/>
<feOffset dy="2"/>
<feGaussianBlur stdDeviation="2"/>
<feComposite in2="hardAlpha" operator="out"/>
<feColorMatrix type="matrix" values="0 0 0 0 0 0 0 0 0 0 0 0 0 0 0 0 0 0 0.25 0"/>
<feBlend mode="normal" in2="BackgroundImageFix" result="effect1_dropShadow_2504_957"/>
<feBlend mode="normal" in="SourceGraphic" in2="effect1_dropShadow_2504_957" result="shape"/>
</filter>
</defs>
</svg>
